# xmcd
#
# Track frame offsets:
#	150
#	15307
#	32401
#	50630
#	66935
#	84701
#	100714
#	115169
#	131149
#	146214
#	165495
#	177527
#
# Disc length: 2624 seconds
#
# Revision: 1
# Processed by: cddbd v1.5.2PL0 Copyright (c) Steve Scherf et al.
# Submitted via: audiograbber 1.83.01
#
DISCID=a20a3e0c
DTITLE=Various Artist - CDX 047
DYEAR=1992
DGENRE=Country
TTITLE0=Kim Perry - Cheatin' Roses
TTITLE1=The Kentucky Headhunters - Honky Tonk Walkin' [Radio Edit]
TTITLE2=Little Texas - I'd Rather Miss You
TTITLE3=Pam Tillis - Let That Pony Run
TTITLE4=Mark Chesnutt - Ol' Country
TTITLE5=Libby Hurley - Our Little Country Town
TTITLE6=Mary Chapin Carpenter - Passionate Kisses
TTITLE7=Billy Ray Cyrus - She's Not Cryin' Anymore
TTITLE8=Glen Campbell - Somebody Like That
TTITLE9=Kathy Mattea - Standing Knee Deep In A River (Dying of Thirst) [Radio E
TTITLE9=dit]
TTITLE10=Palomino Road - Why Baby Why
TTITLE11=Various Artist - Toys For Tots - PSA
EXTD=
EXTT0=
EXTT1=
EXTT2=
EXTT3=
EXTT4=
EXTT5=
EXTT6=
EXTT7=
EXTT8=
EXTT9=
EXTT10=
EXTT11=
PLAYORDER=
